<svg width="42" height="42" viewBox="0 0 42 42" fill="none" xmlns="http://www.w3.org/2000/svg">
  <path d="M21 0C9.402 0 0 9.402 0 21C0 32.598 9.402 42 21 42C32.598 42 42 32.598 42 21C42 9.402 32.598 0 21 0ZM21 38.85C11.151 38.85 3.15 30.849 3.15 21C3.15 11.151 11.151 3.15 21 3.15C30.849 3.15 38.85 11.151 38.85 21C38.85 30.849 30.849 38.85 21 38.85Z" fill="white"/>
  <path d="M29.4 14.7H12.6C11.718 14.7 11 15.418 11 16.3V16.3C11 17.182 11.718 17.9 12.6 17.9H29.4C30.282 17.9 31 17.182 31 16.3V16.3C31 15.418 30.282 14.7 29.4 14.7Z" fill="white"/>
  <path d="M29.4 19.4H12.6C11.718 19.4 11 20.118 11 21V21C11 21.882 11.718 22.6 12.6 22.6H29.4C30.282 22.6 31 21.882 31 21V21C31 20.118 30.282 19.4 29.4 19.4Z" fill="white"/>
  <path d="M29.4 24.1H12.6C11.718 24.1 11 24.818 11 25.7V25.7C11 26.582 11.718 27.3 12.6 27.3H29.4C30.282 27.3 31 26.582 31 25.7V25.7C31 24.818 30.282 24.1 29.4 24.1Z" fill="white"/>
</svg> 